<svg viewBox="0 0 1200 360" width="1200" height="360" xmlns="http://www.w3.org/2000/svg">
  <defs>
    <linearGradient id="bg" x1="0%" y1="0%" x2="100%" y2="100%">
      <stop offset="0%" stop-color="#0b0f19"/>
      <stop offset="50%" stop-color="#101826"/>
      <stop offset="100%" stop-color="#0a1120"/>
    </linearGradient>
    <radialGradient id="glow1" cx="50%" cy="50%" r="50%">
      <stop offset="0%" stop-color="#3b82f6" stop-opacity="0.25"/>
      <stop offset="100%" stop-color="#3b82f6" stop-opacity="0"/>
    </radialGradient>
    <radialGradient id="glow2" cx="50%" cy="50%" r="50%">
      <stop offset="0%" stop-color="#22d3ee" stop-opacity="0.18"/>
      <stop offset="100%" stop-color="#22d3ee" stop-opacity="0"/>
    </radialGradient>
  </defs>

  <rect x="0" y="0" width="1200" height="360" fill="url(#bg)"/>

  <circle cx="180" cy="80" r="180" fill="url(#glow1)"/>
  <circle cx="1040" cy="300" r="220" fill="url(#glow2)"/>

  <g opacity="0.12" stroke="#8ecdf0" stroke-width="1.5" fill="none">
    <path d="M 60 250 Q 300 180 560 230 T 1140 200"/>
    <path d="M 40 300 Q 350 260 620 300 T 1160 270"/>
  </g>

  <g opacity="0.15" fill="#ffffff">
    <circle cx="120" cy="150" r="3"/>
    <circle cx="260" cy="60" r="2"/>
    <circle cx="950" cy="90" r="3"/>
    <circle cx="1080" cy="180" r="2"/>
    <circle cx="700" cy="50" r="2.5"/>
    <circle cx="400" cy="310" r="2"/>
  </g>

  <g opacity="0.1" stroke="#5eead4" stroke-width="1" fill="none">
    <polyline points="80,240 180,220 260,235 340,200 420,215 500,180"/>
    <polyline points="700,220 780,205 860,225 940,190 1020,205 1100,175"/>
  </g>

  <text x="600" y="150" text-anchor="middle" font-family="Segoe UI, Arial, sans-serif" font-size="58.0" font-weight="700" fill="#ffffff">
    <tspan x="600" dy="0">Bybit Copytrading Bot</tspan>
  </text>

  <text x="600" y="210" text-anchor="middle" font-family="Segoe UI, Arial, sans-serif" font-size="20.0" fill="#c9d1d9">
    <tspan x="600" dy="0">Bybit copytrading bot for traders who can't watch charts all day — mirrors a chosen</tspan>
    <tspan x="600" dy="30">trader's positions into y…</tspan>
  </text>
</svg>